<svg width="272" height="63" viewBox="0 0 272 63" fill="none" xmlns="http://www.w3.org/2000/svg">
<path d="M115.919 58.911V59.427C115.919 59.507 115.893 59.573 115.841 59.625C115.789 59.677 115.723 59.703 115.643 59.703H115.139C115.059 59.703 114.993 59.677 114.941 59.625C114.889 59.573 114.863 59.507 114.863 59.427V51.459C114.863 51.371 114.889 51.303 114.941 51.255C114.993 51.207 115.059 51.183 115.139 51.183H115.679C115.759 51.183 115.825 51.209 115.877 51.261C115.929 51.314 115.955 51.379 115.955 51.459V54.23C116.403 53.638 117.051 53.342 117.899 53.342C118.739 53.342 119.369 53.616 119.789 54.164C120.209 54.712 120.431 55.398 120.455 56.222C120.463 56.31 120.467 56.43 120.467 56.582C120.467 56.734 120.463 56.853 120.455 56.942C120.431 57.765 120.209 58.452 119.789 59C119.369 59.548 118.739 59.822 117.899 59.822C117.035 59.823 116.375 59.519 115.919 58.911ZM118.931 58.347C119.195 57.988 119.339 57.515 119.363 56.931C119.371 56.851 119.375 56.736 119.375 56.583C119.375 55.047 118.807 54.279 117.671 54.279C117.127 54.279 116.709 54.457 116.417 54.812C116.125 55.168 115.971 55.59 115.955 56.079C115.947 56.167 115.943 56.323 115.943 56.547C115.943 56.763 115.947 56.915 115.955 57.003C115.971 57.515 116.121 57.957 116.405 58.329C116.689 58.701 117.111 58.887 117.671 58.887C118.247 58.887 118.667 58.707 118.931 58.347Z" fill="white"/>
<path d="M122.663 61.911C122.615 61.863 122.591 61.807 122.591 61.743C122.591 61.719 122.611 61.646 122.651 61.527L123.587 59.331L121.295 53.919C121.247 53.823 121.223 53.755 121.223 53.715C121.231 53.643 121.259 53.583 121.307 53.535C121.355 53.487 121.411 53.463 121.475 53.463H122.027C122.155 53.463 122.251 53.527 122.315 53.655L124.163 58.071L126.059 53.655C126.123 53.527 126.219 53.463 126.347 53.463H126.887C126.951 53.463 127.007 53.487 127.055 53.535C127.103 53.583 127.127 53.639 127.127 53.703C127.127 53.759 127.107 53.831 127.067 53.919L123.671 61.791C123.631 61.854 123.589 61.902 123.545 61.935C123.501 61.968 123.443 61.983 123.371 61.983H122.843C122.771 61.982 122.711 61.959 122.663 61.911Z" fill="white"/>
<path d="M132.761 59.625C132.709 59.573 132.683 59.507 132.683 59.427V52.335H130.367C130.287 52.335 130.221 52.309 130.169 52.257C130.117 52.205 130.091 52.139 130.091 52.059V51.591C130.091 51.503 130.117 51.433 130.169 51.381C130.221 51.329 130.287 51.303 130.367 51.303H136.127C136.215 51.303 136.283 51.329 136.331 51.381C136.379 51.433 136.403 51.503 136.403 51.591V52.059C136.403 52.139 136.377 52.205 136.325 52.257C136.273 52.309 136.207 52.335 136.127 52.335H133.823V59.427C133.823 59.507 133.795 59.573 133.739 59.625C133.683 59.677 133.614 59.703 133.535 59.703H132.959C132.879 59.703 132.813 59.677 132.761 59.625Z" fill="white"/>
<path d="M136.979 59.061C136.491 58.553 136.223 57.86 136.175 56.979L136.163 56.572L136.175 56.176C136.223 55.312 136.491 54.624 136.979 54.113C137.467 53.6 138.119 53.344 138.936 53.344C139.815 53.344 140.498 53.624 140.981 54.184C141.465 54.745 141.708 55.504 141.708 56.464V56.68C141.708 56.76 141.683 56.826 141.63 56.878C141.577 56.93 141.512 56.956 141.433 56.956H137.269V57.063C137.292 57.584 137.453 58.028 137.748 58.395C138.044 58.763 138.436 58.948 138.924 58.948C139.3 58.948 139.607 58.874 139.842 58.725C140.077 58.578 140.256 58.423 140.376 58.263C140.448 58.167 140.504 58.11 140.544 58.089C140.584 58.069 140.651 58.059 140.748 58.059H141.276C141.348 58.059 141.409 58.08 141.462 58.12C141.514 58.16 141.54 58.212 141.54 58.275C141.54 58.452 141.433 58.664 141.216 58.912C141 59.16 140.695 59.374 140.298 59.554C139.901 59.734 139.448 59.825 138.937 59.825C138.119 59.823 137.467 59.569 136.979 59.061ZM140.615 56.139V56.103C140.615 55.543 140.463 55.087 140.159 54.736C139.855 54.383 139.447 54.208 138.935 54.208C138.414 54.208 138.006 54.384 137.71 54.736C137.414 55.088 137.267 55.544 137.267 56.103V56.139H140.615Z" fill="white"/>
<path d="M143.261 59.625C143.209 59.573 143.183 59.507 143.183 59.427V51.459C143.183 51.371 143.209 51.303 143.261 51.255C143.313 51.207 143.379 51.183 143.459 51.183H143.975C144.055 51.183 144.121 51.209 144.172 51.261C144.225 51.314 144.25 51.379 144.25 51.459V55.647L146.65 53.668C146.77 53.58 146.854 53.523 146.902 53.5C146.951 53.476 147.026 53.464 147.131 53.464H147.731C147.803 53.464 147.861 53.486 147.905 53.53C147.949 53.574 147.971 53.635 147.971 53.716C147.971 53.788 147.926 53.864 147.838 53.945L145.03 56.249L148.138 59.225C148.226 59.313 148.27 59.389 148.27 59.454C148.27 59.525 148.248 59.586 148.205 59.634C148.16 59.682 148.102 59.706 148.03 59.706H147.442C147.322 59.706 147.236 59.693 147.184 59.67C147.132 59.646 147.058 59.59 146.962 59.502L144.249 56.934V59.43C144.249 59.51 144.224 59.576 144.171 59.628C144.12 59.68 144.054 59.706 143.974 59.706H143.458C143.379 59.703 143.313 59.677 143.261 59.625Z" fill="white"/>
<path d="M149.404 59.625C149.352 59.573 149.326 59.507 149.326 59.427V53.739C149.326 53.659 149.352 53.593 149.404 53.541C149.457 53.489 149.522 53.463 149.602 53.463H150.119C150.207 53.463 150.275 53.487 150.322 53.535C150.371 53.583 150.394 53.651 150.394 53.739V54.266C150.634 53.97 150.912 53.743 151.228 53.582C151.544 53.421 151.938 53.342 152.41 53.342C153.179 53.342 153.774 53.588 154.199 54.08C154.623 54.572 154.835 55.222 154.835 56.03V59.426C154.835 59.506 154.809 59.572 154.757 59.624C154.705 59.676 154.639 59.702 154.559 59.702H154.007C153.927 59.702 153.861 59.676 153.809 59.624C153.757 59.572 153.731 59.506 153.731 59.426V56.102C153.731 55.527 153.591 55.079 153.311 54.758C153.032 54.439 152.631 54.279 152.112 54.279C151.599 54.279 151.192 54.44 150.887 54.764C150.582 55.088 150.431 55.535 150.431 56.102V59.426C150.431 59.506 150.405 59.572 150.353 59.624C150.301 59.676 150.235 59.702 150.155 59.702H149.603C149.522 59.703 149.457 59.677 149.404 59.625Z" fill="white"/>
<path d="M157.072 59.079C156.595 58.583 156.342 57.923 156.31 57.099L156.298 56.583L156.31 56.066C156.341 55.243 156.599 54.583 157.083 54.087C157.567 53.591 158.241 53.343 159.105 53.343C159.969 53.343 160.643 53.591 161.127 54.087C161.61 54.583 161.868 55.243 161.9 56.066C161.916 56.243 161.923 56.415 161.923 56.583C161.923 56.751 161.915 56.923 161.9 57.099C161.868 57.923 161.614 58.583 161.138 59.079C160.661 59.575 159.984 59.823 159.104 59.823C158.224 59.823 157.549 59.575 157.072 59.079ZM160.324 58.437C160.625 58.114 160.786 57.647 160.81 57.04C160.818 56.96 160.822 56.808 160.822 56.584C160.822 56.36 160.818 56.208 160.81 56.128C160.786 55.52 160.624 55.054 160.324 54.73C160.024 54.407 159.618 54.245 159.106 54.245C158.593 54.245 158.188 54.407 157.888 54.73C157.587 55.054 157.425 55.52 157.402 56.128L157.39 56.584L157.402 57.04C157.425 57.647 157.588 58.114 157.888 58.437C158.188 58.761 158.593 58.923 159.106 58.923C159.618 58.923 160.024 58.761 160.324 58.437Z" fill="white"/>
<path d="M163.528 59.625C163.476 59.573 163.45 59.507 163.45 59.427V51.459C163.45 51.371 163.476 51.303 163.528 51.255C163.58 51.207 163.646 51.183 163.726 51.183H164.253C164.333 51.183 164.399 51.209 164.451 51.261C164.503 51.314 164.529 51.379 164.529 51.459V59.427C164.529 59.507 164.503 59.573 164.451 59.625C164.399 59.677 164.333 59.703 164.253 59.703H163.726C163.646 59.703 163.58 59.677 163.528 59.625Z" fill="white"/>
<path d="M166.828 59.079C166.351 58.583 166.098 57.923 166.066 57.099L166.054 56.583L166.066 56.066C166.097 55.243 166.355 54.583 166.839 54.087C167.323 53.591 167.997 53.343 168.861 53.343C169.725 53.343 170.399 53.591 170.883 54.087C171.366 54.583 171.624 55.243 171.656 56.066C171.672 56.243 171.679 56.415 171.679 56.583C171.679 56.751 171.671 56.923 171.656 57.099C171.624 57.923 171.37 58.583 170.894 59.079C170.417 59.575 169.74 59.823 168.86 59.823C167.98 59.823 167.305 59.575 166.828 59.079ZM170.08 58.437C170.381 58.114 170.542 57.647 170.566 57.04C170.574 56.96 170.578 56.808 170.578 56.584C170.578 56.36 170.574 56.208 170.566 56.128C170.542 55.52 170.38 55.054 170.08 54.73C169.78 54.407 169.374 54.245 168.862 54.245C168.349 54.245 167.944 54.407 167.644 54.73C167.343 55.054 167.181 55.52 167.158 56.128L167.146 56.584L167.158 57.04C167.181 57.647 167.344 58.114 167.644 58.437C167.944 58.761 168.349 58.923 168.862 58.923C169.374 58.923 169.78 58.761 170.08 58.437Z" fill="white"/>
<path d="M171.97 61.905C171.922 61.852 171.899 61.787 171.899 61.707V61.323C171.899 61.243 171.922 61.178 171.97 61.131C172.018 61.084 172.082 61.059 172.162 61.059H172.33C172.722 61.059 172.984 60.957 173.115 60.753C173.248 60.549 173.314 60.251 173.314 59.858V53.739C173.314 53.651 173.339 53.583 173.392 53.535C173.443 53.487 173.509 53.463 173.589 53.463H174.129C174.209 53.463 174.275 53.489 174.327 53.541C174.379 53.593 174.405 53.659 174.405 53.739V59.871C174.405 61.279 173.733 61.982 172.389 61.982H172.16C172.082 61.982 172.018 61.957 171.97 61.905ZM173.284 52.209C173.232 52.157 173.206 52.091 173.206 52.011V51.387C173.206 51.307 173.232 51.24 173.284 51.183C173.336 51.127 173.402 51.099 173.482 51.099H174.226C174.305 51.099 174.371 51.127 174.423 51.183C174.476 51.24 174.501 51.307 174.501 51.387V52.011C174.501 52.091 174.476 52.157 174.423 52.209C174.37 52.261 174.305 52.287 174.226 52.287H173.482C173.402 52.287 173.336 52.261 173.284 52.209Z" fill="white"/>
<path d="M176.2 52.209C176.148 52.157 176.123 52.091 176.123 52.011V51.387C176.123 51.307 176.148 51.24 176.2 51.183C176.252 51.127 176.318 51.099 176.398 51.099H177.106C177.185 51.099 177.253 51.127 177.31 51.183C177.366 51.24 177.394 51.307 177.394 51.387V52.011C177.394 52.091 177.366 52.157 177.31 52.209C177.253 52.261 177.185 52.287 177.106 52.287H176.398C176.318 52.287 176.252 52.261 176.2 52.209ZM176.297 59.625C176.244 59.573 176.219 59.507 176.219 59.427V53.739C176.219 53.659 176.244 53.593 176.297 53.541C176.348 53.489 176.414 53.463 176.494 53.463H177.022C177.101 53.463 177.168 53.489 177.22 53.541C177.272 53.593 177.298 53.659 177.298 53.739V59.427C177.298 59.507 177.272 59.573 177.22 59.625C177.167 59.677 177.101 59.703 177.022 59.703H176.494C176.414 59.703 176.348 59.677 176.297 59.625Z" fill="white"/>
<path d="M179.488 59.007C179.068 58.463 178.842 57.776 178.81 56.944L178.798 56.584L178.81 56.224C178.841 55.401 179.07 54.714 179.494 54.166C179.918 53.618 180.546 53.344 181.379 53.344C182.21 53.344 182.858 53.64 183.322 54.232V51.461C183.322 51.381 183.347 51.315 183.4 51.263C183.452 51.211 183.517 51.185 183.597 51.185H184.138C184.218 51.185 184.284 51.211 184.335 51.263C184.388 51.316 184.413 51.381 184.413 51.461V59.429C184.413 59.509 184.388 59.575 184.335 59.627C184.283 59.679 184.218 59.705 184.138 59.705H183.621C183.541 59.705 183.477 59.679 183.429 59.627C183.382 59.575 183.358 59.509 183.358 59.429V58.913C182.902 59.52 182.242 59.825 181.379 59.825C180.538 59.823 179.908 59.551 179.488 59.007ZM182.866 58.329C183.146 57.957 183.299 57.515 183.322 57.003C183.33 56.915 183.334 56.763 183.334 56.547C183.334 56.323 183.33 56.167 183.322 56.079C183.306 55.591 183.152 55.169 182.86 54.812C182.568 54.457 182.15 54.279 181.606 54.279C181.03 54.279 180.61 54.459 180.345 54.819C180.081 55.178 179.938 55.651 179.913 56.235L179.901 56.583C179.901 58.119 180.469 58.887 181.605 58.887C182.166 58.887 182.586 58.701 182.866 58.329Z" fill="white"/>
<path d="M186.742 59.061C186.254 58.553 185.986 57.86 185.937 56.979L185.925 56.572L185.937 56.176C185.986 55.312 186.253 54.624 186.742 54.113C187.23 53.6 187.883 53.344 188.698 53.344C189.578 53.344 190.26 53.624 190.744 54.184C191.228 54.745 191.471 55.504 191.471 56.464V56.68C191.471 56.76 191.445 56.826 191.393 56.878C191.34 56.93 191.274 56.956 191.195 56.956H187.031V57.063C187.055 57.584 187.215 58.028 187.51 58.395C187.807 58.763 188.198 58.948 188.686 58.948C189.063 58.948 189.369 58.874 189.604 58.725C189.84 58.578 190.018 58.423 190.139 58.263C190.21 58.167 190.266 58.11 190.307 58.089C190.346 58.069 190.414 58.059 190.51 58.059H191.038C191.11 58.059 191.172 58.08 191.225 58.12C191.276 58.16 191.303 58.212 191.303 58.275C191.303 58.452 191.195 58.664 190.979 58.912C190.762 59.16 190.457 59.374 190.061 59.554C189.665 59.734 189.21 59.825 188.699 59.825C187.883 59.823 187.23 59.569 186.742 59.061ZM190.378 56.139V56.103C190.378 55.543 190.227 55.087 189.922 54.736C189.618 54.383 189.21 54.208 188.698 54.208C188.177 54.208 187.769 54.384 187.474 54.736C187.177 55.088 187.03 55.544 187.03 56.103V56.139H190.378Z" fill="white"/>
<path d="M196.113 59.625C196.066 59.573 196.042 59.507 196.042 59.427V51.591C196.042 51.503 196.066 51.433 196.113 51.381C196.162 51.329 196.225 51.303 196.305 51.303H196.868C196.957 51.303 197.026 51.329 197.079 51.381C197.131 51.433 197.157 51.503 197.157 51.591V54.579L200.409 51.495C200.536 51.367 200.692 51.303 200.877 51.303H201.478C201.541 51.303 201.597 51.327 201.646 51.375C201.693 51.423 201.717 51.479 201.717 51.543C201.717 51.607 201.696 51.659 201.657 51.699L197.913 55.323L201.909 59.295C201.948 59.343 201.969 59.399 201.969 59.463C201.969 59.527 201.945 59.583 201.898 59.631C201.849 59.679 201.794 59.703 201.73 59.703H201.105C200.994 59.703 200.906 59.684 200.841 59.648C200.777 59.613 200.709 59.567 200.637 59.51L197.158 56.114V59.426C197.158 59.506 197.13 59.572 197.074 59.624C197.017 59.676 196.949 59.702 196.869 59.702H196.306C196.226 59.703 196.162 59.677 196.113 59.625Z" fill="white"/>
<path d="M203.631 59.583C203.299 59.423 203.035 59.205 202.84 58.929C202.643 58.654 202.545 58.347 202.545 58.011C202.545 57.483 202.762 57.051 203.193 56.715C203.624 56.379 204.213 56.155 204.957 56.043L206.758 55.791V55.443C206.758 54.619 206.281 54.207 205.33 54.207C204.961 54.207 204.665 54.281 204.441 54.429C204.216 54.577 204.052 54.751 203.949 54.951C203.918 55.031 203.883 55.085 203.847 55.113C203.811 55.14 203.761 55.155 203.697 55.155H203.229C203.157 55.155 203.095 55.129 203.042 55.077C202.99 55.025 202.964 54.963 202.964 54.89C202.964 54.706 203.05 54.493 203.222 54.248C203.395 54.004 203.66 53.792 204.021 53.612C204.38 53.431 204.821 53.341 205.341 53.341C206.237 53.341 206.878 53.549 207.267 53.965C207.655 54.381 207.849 54.902 207.849 55.526V59.425C207.849 59.505 207.823 59.571 207.771 59.623C207.718 59.675 207.653 59.701 207.573 59.701H207.045C206.965 59.701 206.901 59.675 206.854 59.623C206.805 59.571 206.782 59.505 206.782 59.425V58.897C206.606 59.162 206.35 59.381 206.014 59.557C205.678 59.733 205.245 59.822 204.717 59.822C204.325 59.823 203.963 59.743 203.631 59.583ZM206.254 58.431C206.59 58.087 206.758 57.587 206.758 56.931V56.595L205.354 56.799C204.778 56.879 204.342 57.015 204.045 57.207C203.75 57.398 203.602 57.639 203.602 57.927C203.602 58.255 203.736 58.507 204.004 58.683C204.272 58.86 204.59 58.948 204.957 58.948C205.485 58.947 205.918 58.775 206.254 58.431Z" fill="white"/>
<path d="M209.979 59.007C209.559 58.463 209.333 57.776 209.3 56.944L209.288 56.584L209.3 56.224C209.333 55.401 209.561 54.714 209.985 54.166C210.409 53.618 211.037 53.344 211.869 53.344C212.701 53.344 213.349 53.64 213.813 54.232V51.461C213.813 51.381 213.839 51.315 213.891 51.263C213.943 51.211 214.009 51.185 214.089 51.185H214.628C214.708 51.185 214.774 51.211 214.827 51.263C214.878 51.316 214.904 51.381 214.904 51.461V59.429C214.904 59.509 214.878 59.575 214.827 59.627C214.774 59.679 214.708 59.705 214.628 59.705H214.112C214.032 59.705 213.967 59.679 213.921 59.627C213.872 59.575 213.849 59.509 213.849 59.429V58.913C213.393 59.52 212.733 59.825 211.869 59.825C211.029 59.823 210.399 59.551 209.979 59.007ZM213.357 58.329C213.636 57.957 213.789 57.515 213.813 57.003C213.821 56.915 213.826 56.763 213.826 56.547C213.826 56.323 213.821 56.167 213.813 56.079C213.796 55.591 213.643 55.169 213.351 54.812C213.059 54.457 212.641 54.279 212.097 54.279C211.521 54.279 211.101 54.459 210.837 54.819C210.572 55.178 210.429 55.651 210.404 56.235L210.392 56.583C210.392 58.119 210.959 58.887 212.096 58.887C212.657 58.887 213.077 58.701 213.357 58.329Z" fill="white"/>
<path d="M216.795 59.625C216.743 59.573 216.717 59.507 216.717 59.427V53.739C216.717 53.659 216.743 53.593 216.795 53.541C216.848 53.489 216.913 53.463 216.993 53.463H217.521C217.601 53.463 217.667 53.489 217.718 53.541C217.771 53.593 217.796 53.659 217.796 53.739V59.427C217.796 59.507 217.771 59.573 217.718 59.625C217.667 59.677 217.601 59.703 217.521 59.703H216.993C216.913 59.703 216.848 59.677 216.795 59.625Z" fill="white"/>
<path d="M219.676 59.625C219.623 59.573 219.598 59.507 219.598 59.427V53.739C219.598 53.659 219.623 53.593 219.676 53.541C219.727 53.489 219.793 53.463 219.873 53.463H220.389C220.477 53.463 220.545 53.487 220.594 53.535C220.641 53.583 220.665 53.651 220.665 53.739V54.266C220.905 53.97 221.184 53.743 221.499 53.582C221.815 53.422 222.209 53.342 222.682 53.342C223.45 53.342 224.045 53.588 224.469 54.08C224.893 54.572 225.106 55.222 225.106 56.03V59.426C225.106 59.506 225.08 59.572 225.028 59.624C224.975 59.676 224.91 59.702 224.83 59.702H224.278C224.198 59.702 224.132 59.676 224.08 59.624C224.028 59.572 224.003 59.506 224.003 59.426V56.102C224.003 55.527 223.862 55.079 223.582 54.758C223.302 54.439 222.902 54.279 222.382 54.279C221.87 54.279 221.462 54.44 221.158 54.764C220.854 55.088 220.702 55.535 220.702 56.102V59.426C220.702 59.506 220.677 59.572 220.624 59.624C220.572 59.676 220.507 59.702 220.427 59.702H219.874C219.793 59.703 219.727 59.677 219.676 59.625Z" fill="white"/>
<path d="M230.025 59.625C229.976 59.573 229.953 59.507 229.953 59.427V51.591C229.953 51.503 229.976 51.433 230.025 51.381C230.072 51.329 230.136 51.303 230.216 51.303H232.929C234.136 51.303 235.008 51.574 235.544 52.114C236.08 52.654 236.357 53.468 236.372 54.555C236.38 54.787 236.384 55.099 236.384 55.492C236.384 55.884 236.38 56.2 236.372 56.439C236.356 57.2 236.233 57.818 236.006 58.293C235.779 58.768 235.42 59.123 234.933 59.355C234.445 59.587 233.796 59.704 232.988 59.704H230.217C230.137 59.703 230.072 59.677 230.025 59.625ZM232.93 58.707C233.489 58.707 233.936 58.629 234.268 58.473C234.599 58.317 234.839 58.074 234.987 57.742C235.135 57.41 235.217 56.96 235.233 56.391C235.25 55.912 235.257 55.612 235.257 55.492C235.257 55.364 235.249 55.068 235.233 54.603C235.217 53.803 235.028 53.217 234.664 52.845C234.3 52.473 233.702 52.287 232.87 52.287H231.082V58.707H232.93V58.707Z" fill="white"/>
<path d="M238.568 59.061C238.08 58.553 237.812 57.86 237.764 56.979L237.752 56.572L237.764 56.176C237.812 55.312 238.079 54.624 238.568 54.113C239.056 53.6 239.709 53.344 240.525 53.344C241.404 53.344 242.087 53.624 242.57 54.184C243.054 54.745 243.297 55.504 243.297 56.464V56.68C243.297 56.76 243.272 56.826 243.219 56.878C243.166 56.93 243.101 56.956 243.022 56.956H238.858V57.063C238.881 57.584 239.042 58.028 239.337 58.395C239.633 58.763 240.025 58.948 240.513 58.948C240.889 58.948 241.196 58.874 241.431 58.725C241.666 58.578 241.845 58.423 241.965 58.263C242.037 58.167 242.093 58.11 242.133 58.089C242.173 58.069 242.24 58.059 242.337 58.059H242.865C242.937 58.059 242.998 58.08 243.051 58.12C243.103 58.16 243.129 58.212 243.129 58.275C243.129 58.452 243.022 58.664 242.805 58.912C242.589 59.16 242.284 59.374 241.887 59.554C241.49 59.734 241.037 59.825 240.526 59.825C239.709 59.823 239.057 59.569 238.568 59.061ZM242.205 56.139V56.103C242.205 55.543 242.053 55.087 241.749 54.736C241.445 54.383 241.037 54.208 240.525 54.208C240.004 54.208 239.596 54.384 239.3 54.736C239.004 55.088 238.857 55.544 238.857 56.103V56.139H242.205Z" fill="white"/>
<path d="M244.839 59.625C244.787 59.573 244.761 59.507 244.761 59.427V53.751C244.761 53.671 244.787 53.603 244.839 53.547C244.891 53.491 244.957 53.463 245.037 53.463H245.541C245.629 53.463 245.699 53.489 245.751 53.541C245.803 53.593 245.828 53.663 245.828 53.751V54.279C246.156 53.735 246.713 53.463 247.497 53.463H247.965C248.053 53.463 248.121 53.487 248.169 53.535C248.217 53.583 248.24 53.651 248.24 53.739V54.182C248.24 54.262 248.217 54.328 248.169 54.38C248.121 54.432 248.053 54.458 247.965 54.458H247.281C246.841 54.458 246.494 54.586 246.242 54.842C245.99 55.098 245.865 55.446 245.865 55.886V59.426C245.865 59.506 245.837 59.572 245.781 59.624C245.724 59.676 245.656 59.702 245.576 59.702H245.037C244.957 59.703 244.891 59.677 244.839 59.625Z" fill="white"/>
<path d="M249.351 59.625C249.299 59.573 249.273 59.507 249.273 59.427V53.739C249.273 53.659 249.299 53.593 249.351 53.541C249.403 53.489 249.469 53.463 249.549 53.463H250.065C250.153 53.463 250.221 53.487 250.269 53.535C250.317 53.583 250.34 53.651 250.34 53.739V54.266C250.58 53.97 250.859 53.743 251.174 53.582C251.49 53.422 251.885 53.342 252.357 53.342C253.126 53.342 253.721 53.588 254.145 54.08C254.569 54.572 254.782 55.222 254.782 56.03V59.426C254.782 59.506 254.755 59.572 254.704 59.624C254.651 59.676 254.585 59.702 254.505 59.702H253.954C253.874 59.702 253.808 59.676 253.755 59.624C253.704 59.572 253.678 59.506 253.678 59.426V56.102C253.678 55.527 253.538 55.079 253.257 54.758C252.978 54.439 252.577 54.279 252.058 54.279C251.546 54.279 251.138 54.44 250.833 54.764C250.529 55.088 250.378 55.535 250.378 56.102V59.426C250.378 59.506 250.352 59.572 250.3 59.624C250.247 59.676 250.182 59.702 250.102 59.702H249.55C249.469 59.703 249.402 59.677 249.351 59.625Z" fill="white"/>
<path d="M257.037 59.061C256.549 58.553 256.281 57.86 256.232 56.979L256.22 56.572L256.232 56.176C256.281 55.312 256.548 54.624 257.037 54.113C257.524 53.6 258.177 53.344 258.992 53.344C259.873 53.344 260.555 53.624 261.039 54.184C261.522 54.745 261.765 55.504 261.765 56.464V56.68C261.765 56.76 261.739 56.826 261.687 56.878C261.635 56.93 261.569 56.956 261.489 56.956H257.325V57.063C257.349 57.584 257.509 58.028 257.805 58.395C258.101 58.763 258.493 58.948 258.981 58.948C259.357 58.948 259.663 58.874 259.899 58.725C260.135 58.578 260.313 58.423 260.433 58.263C260.504 58.167 260.561 58.11 260.601 58.089C260.641 58.069 260.709 58.059 260.805 58.059H261.332C261.404 58.059 261.467 58.08 261.519 58.12C261.571 58.16 261.597 58.212 261.597 58.275C261.597 58.452 261.489 58.664 261.273 58.912C261.057 59.16 260.751 59.374 260.355 59.554C259.959 59.734 259.504 59.825 258.993 59.825C258.177 59.823 257.524 59.569 257.037 59.061ZM260.672 56.139V56.103C260.672 55.543 260.521 55.087 260.217 54.736C259.912 54.383 259.504 54.208 258.992 54.208C258.472 54.208 258.064 54.384 257.768 54.736C257.472 55.088 257.324 55.544 257.324 56.103V56.139H260.672Z" fill="white"/>
<path d="M264.164 62.007C263.765 61.783 263.482 61.528 263.318 61.239C263.154 60.95 263.072 60.703 263.072 60.495C263.072 60.423 263.1 60.36 263.156 60.308C263.213 60.256 263.277 60.23 263.348 60.23H263.876C263.948 60.23 264.008 60.249 264.056 60.285C264.104 60.321 264.144 60.387 264.176 60.482C264.4 61.123 264.907 61.443 265.7 61.443C266.3 61.443 266.743 61.314 267.032 61.058C267.319 60.802 267.464 60.35 267.464 59.703V58.875C266.999 59.467 266.352 59.763 265.52 59.763C264.671 59.763 264.039 59.492 263.619 58.948C263.199 58.404 262.976 57.716 262.953 56.884L262.94 56.548L262.953 56.224C262.976 55.401 263.199 54.714 263.619 54.166C264.039 53.618 264.672 53.344 265.52 53.344C266.361 53.344 267.016 53.653 267.488 54.268V53.752C267.488 53.672 267.514 53.604 267.566 53.548C267.619 53.492 267.684 53.464 267.764 53.464H268.281C268.36 53.464 268.426 53.492 268.478 53.548C268.53 53.604 268.556 53.672 268.556 53.752V59.572C268.556 61.42 267.624 62.343 265.76 62.343C265.097 62.343 264.564 62.23 264.164 62.007ZM267.002 58.281C267.287 57.917 267.44 57.478 267.465 56.967C267.473 56.895 267.477 56.755 267.477 56.547C267.477 56.347 267.473 56.211 267.465 56.139C267.441 55.627 267.287 55.19 267.002 54.826C266.719 54.462 266.297 54.28 265.736 54.28C265.16 54.28 264.742 54.462 264.482 54.826C264.222 55.19 264.08 55.66 264.056 56.236L264.044 56.548L264.056 56.872C264.079 57.448 264.222 57.918 264.482 58.282C264.742 58.645 265.16 58.828 265.736 58.828C266.297 58.827 266.719 58.645 267.002 58.281ZM264.65 52.203C264.422 51.923 264.308 51.571 264.308 51.146C264.308 51.083 264.328 51.029 264.369 50.985C264.408 50.941 264.465 50.919 264.537 50.919H264.873C264.945 50.919 265 50.941 265.041 50.985C265.08 51.029 265.101 51.083 265.101 51.146C265.101 51.659 265.317 51.915 265.748 51.915C266.181 51.915 266.396 51.659 266.396 51.146C266.396 51.083 266.416 51.029 266.457 50.985C266.496 50.941 266.553 50.919 266.625 50.919H266.973C267.045 50.919 267.101 50.941 267.141 50.985C267.181 51.029 267.202 51.083 267.202 51.146C267.202 51.571 267.087 51.922 266.859 52.203C266.631 52.484 266.26 52.623 265.749 52.623C265.244 52.623 264.879 52.483 264.65 52.203Z" fill="white"/>
<path d="M270.35 52.209C270.299 52.157 270.273 52.091 270.273 52.011V51.387C270.273 51.307 270.299 51.24 270.35 51.183C270.403 51.127 270.469 51.099 270.549 51.099H271.256C271.336 51.099 271.404 51.127 271.461 51.183C271.516 51.24 271.545 51.307 271.545 51.387V52.011C271.545 52.091 271.516 52.157 271.461 52.209C271.404 52.261 271.336 52.287 271.256 52.287H270.549C270.469 52.287 270.402 52.261 270.35 52.209ZM270.446 59.625C270.394 59.573 270.368 59.507 270.368 59.427V53.739C270.368 53.659 270.394 53.593 270.446 53.541C270.498 53.489 270.564 53.463 270.644 53.463H271.171C271.251 53.463 271.317 53.489 271.369 53.541C271.421 53.593 271.447 53.659 271.447 53.739V59.427C271.447 59.507 271.421 59.573 271.369 59.625C271.317 59.677 271.251 59.703 271.171 59.703H270.644C270.564 59.703 270.498 59.677 270.446 59.625Z" fill="white"/>
<path d="M117.668 16.932L115.19 3.471L115.169 3.303C115.169 3.177 115.211 3.072 115.295 2.988C115.379 2.904 115.484 2.862 115.61 2.862H117.5C117.682 2.862 117.815 2.894 117.899 2.957C117.983 3.02 118.039 3.128 118.067 3.283L119.81 12.733L121.679 6.643C121.819 6.293 122.05 6.118 122.372 6.118H123.527C123.709 6.118 123.856 6.17 123.968 6.275C124.08 6.38 124.157 6.503 124.199 6.643L126.089 12.733L127.811 3.283C127.853 3.003 128.049 2.863 128.399 2.863H130.289C130.401 2.863 130.499 2.905 130.583 2.989C130.667 3.073 130.709 3.178 130.709 3.304C130.709 3.374 130.702 3.43 130.688 3.472L128.21 16.933C128.182 17.129 128.102 17.283 127.969 17.395C127.836 17.507 127.664 17.563 127.454 17.563H126.026C125.83 17.563 125.669 17.51 125.543 17.405C125.417 17.3 125.333 17.178 125.291 17.038L122.939 10.066L120.587 17.038C120.475 17.388 120.23 17.563 119.852 17.563H118.424C118.018 17.562 117.766 17.352 117.668 16.932Z" fill="white"/>
<path d="M134.972 16.564C134.328 15.899 134.006 14.923 134.006 13.635V8.889H132.347C132.207 8.889 132.088 8.84 131.99 8.742C131.892 8.644 131.843 8.525 131.843 8.385V7.146C131.843 7.006 131.892 6.887 131.99 6.789C132.088 6.691 132.207 6.642 132.347 6.642H134.006V3.156C134.006 3.002 134.055 2.88 134.153 2.788C134.251 2.697 134.37 2.651 134.51 2.651H136.253C136.407 2.651 136.529 2.697 136.62 2.788C136.711 2.879 136.757 3.001 136.757 3.156V6.642H139.382C139.522 6.642 139.641 6.691 139.739 6.789C139.837 6.887 139.885 7.006 139.885 7.146V8.385C139.885 8.525 139.836 8.644 139.739 8.742C139.64 8.84 139.521 8.889 139.382 8.889H136.757V13.404C136.757 14.007 136.862 14.462 137.072 14.769C137.282 15.077 137.625 15.231 138.101 15.231H139.571C139.724 15.231 139.847 15.277 139.938 15.368C140.029 15.459 140.075 15.581 140.075 15.735V17.058C140.075 17.198 140.029 17.317 139.938 17.415C139.847 17.513 139.724 17.562 139.571 17.562H137.848C136.575 17.562 135.616 17.229 134.972 16.564Z" fill="white"/>
<path d="M142.941 16.428C142.024 15.532 141.538 14.258 141.482 12.606L141.461 12.081C141.461 10.331 141.92 8.952 142.837 7.944C143.754 6.936 145.025 6.432 146.649 6.432C148.315 6.432 149.599 6.936 150.503 7.944C151.406 8.952 151.857 10.296 151.857 11.976V12.417C151.857 12.557 151.808 12.676 151.71 12.774C151.612 12.872 151.486 12.921 151.332 12.921H144.36V13.089C144.388 13.873 144.601 14.521 145.001 15.032C145.399 15.543 145.949 15.798 146.649 15.798C147.447 15.798 148.098 15.476 148.602 14.832C148.728 14.678 148.826 14.583 148.896 14.548C148.965 14.513 149.084 14.496 149.252 14.496H151.101C151.227 14.496 151.335 14.531 151.426 14.601C151.517 14.671 151.563 14.769 151.563 14.895C151.563 15.231 151.364 15.627 150.964 16.082C150.565 16.537 149.994 16.933 149.252 17.269C148.51 17.605 147.649 17.773 146.669 17.773C145.102 17.772 143.858 17.324 142.941 16.428ZM148.958 11.136V11.094C148.958 10.268 148.752 9.606 148.339 9.109C147.926 8.612 147.362 8.363 146.649 8.363C145.936 8.363 145.375 8.612 144.969 9.109C144.563 9.606 144.36 10.268 144.36 11.094V11.136H148.958Z" fill="white"/>
<path d="M155.121 16.491C154.204 15.637 153.718 14.454 153.662 12.942L153.641 12.102L153.662 11.262C153.718 9.75 154.204 8.567 155.121 7.713C156.038 6.859 157.267 6.432 158.807 6.432C159.913 6.432 160.848 6.628 161.611 7.02C162.374 7.412 162.941 7.892 163.312 8.458C163.683 9.024 163.882 9.568 163.911 10.085C163.925 10.225 163.88 10.344 163.774 10.442C163.67 10.54 163.546 10.589 163.407 10.589H161.538C161.384 10.589 161.271 10.558 161.202 10.495C161.132 10.432 161.061 10.316 160.992 10.148C160.782 9.616 160.506 9.231 160.162 8.993C159.819 8.755 159.382 8.636 158.849 8.636C158.135 8.636 157.578 8.86 157.18 9.308C156.781 9.756 156.568 10.442 156.539 11.366L156.518 12.143L156.539 12.836C156.623 14.656 157.393 15.566 158.849 15.566C159.396 15.566 159.836 15.451 160.172 15.22C160.508 14.989 160.781 14.6 160.991 14.054C161.047 13.9 161.113 13.788 161.19 13.718C161.267 13.648 161.382 13.613 161.537 13.613H163.406C163.546 13.613 163.669 13.662 163.773 13.76C163.878 13.858 163.923 13.977 163.91 14.117C163.882 14.607 163.685 15.136 163.322 15.702C162.958 16.269 162.398 16.756 161.641 17.161C160.885 17.567 159.941 17.77 158.806 17.77C157.267 17.772 156.038 17.345 155.121 16.491Z" fill="white"/>
<path d="M166.262 17.415C166.164 17.317 166.116 17.198 166.116 17.058V3.156C166.116 3.002 166.165 2.88 166.262 2.788C166.36 2.697 166.479 2.651 166.619 2.651H168.529C168.683 2.651 168.805 2.697 168.897 2.788C168.988 2.879 169.034 3.001 169.034 3.156V7.944C169.874 6.936 171.001 6.432 172.415 6.432C173.703 6.432 174.731 6.855 175.502 7.703C176.272 8.55 176.657 9.702 176.657 11.158V17.059C176.657 17.199 176.611 17.318 176.52 17.416C176.428 17.514 176.306 17.563 176.152 17.563H174.242C174.088 17.563 173.962 17.514 173.863 17.416C173.765 17.318 173.717 17.199 173.717 17.059V11.284C173.717 10.472 173.518 9.838 173.118 9.383C172.72 8.928 172.148 8.701 171.407 8.701C170.692 8.701 170.118 8.932 169.684 9.394C169.25 9.856 169.034 10.486 169.034 11.284V17.059C169.034 17.199 168.988 17.318 168.897 17.416C168.805 17.514 168.683 17.563 168.529 17.563H166.619C166.479 17.562 166.359 17.513 166.262 17.415Z" fill="white"/>
<path d="M116.156 42.615C116.058 42.517 116.009 42.398 116.009 42.258V28.588C116.009 28.434 116.054 28.308 116.145 28.21C116.236 28.112 116.358 28.063 116.513 28.063H122.141C123.835 28.063 125.165 28.462 126.131 29.26C127.097 30.058 127.58 31.22 127.58 32.746C127.58 34.258 127.097 35.402 126.131 36.18C125.165 36.956 123.835 37.345 122.141 37.345H119.054V42.259C119.054 42.413 119.005 42.535 118.907 42.626C118.809 42.718 118.683 42.763 118.529 42.763H116.513C116.373 42.762 116.254 42.713 116.156 42.615ZM122.036 34.992C122.848 34.992 123.467 34.8 123.894 34.414C124.321 34.029 124.535 33.466 124.535 32.724C124.535 31.997 124.328 31.43 123.915 31.024C123.502 30.618 122.875 30.415 122.036 30.415H119.012V34.993H122.036V34.992Z" fill="white"/>
<path d="M129.785 42.615C129.687 42.517 129.638 42.398 129.638 42.258V28.356C129.638 28.202 129.687 28.08 129.785 27.988C129.883 27.897 130.002 27.851 130.142 27.851H131.906C132.06 27.851 132.182 27.897 132.274 27.988C132.365 28.079 132.411 28.201 132.411 28.356V42.257C132.411 42.398 132.365 42.517 132.274 42.614C132.183 42.712 132.061 42.76 131.906 42.76H130.142C130.002 42.762 129.883 42.713 129.785 42.615Z" fill="white"/>
<path d="M136.41 42.541C135.815 42.255 135.346 41.866 135.003 41.376C134.66 40.886 134.488 40.347 134.488 39.759C134.488 38.807 134.873 38.037 135.643 37.449C136.413 36.861 137.47 36.462 138.814 36.252L141.691 35.832V35.391C141.691 34.789 141.537 34.334 141.229 34.027C140.92 33.718 140.431 33.564 139.758 33.564C139.296 33.564 138.925 33.649 138.646 33.817C138.366 33.985 138.138 34.156 137.963 34.331C137.787 34.507 137.672 34.622 137.616 34.678C137.56 34.846 137.455 34.93 137.301 34.93H135.663C135.537 34.93 135.428 34.888 135.337 34.804C135.246 34.72 135.201 34.609 135.201 34.468C135.215 34.118 135.386 33.723 135.715 33.281C136.044 32.841 136.551 32.455 137.238 32.126C137.924 31.797 138.771 31.633 139.779 31.633C141.43 31.633 142.634 32.004 143.391 32.746C144.147 33.488 144.525 34.461 144.525 35.665V42.259C144.525 42.4 144.479 42.519 144.388 42.616C144.297 42.713 144.174 42.762 144.021 42.762H142.278C142.137 42.762 142.018 42.713 141.921 42.616C141.824 42.519 141.775 42.399 141.775 42.259V41.44C141.466 41.888 141.033 42.256 140.473 42.543C139.912 42.83 139.212 42.974 138.372 42.974C137.66 42.972 137.006 42.828 136.41 42.541ZM140.979 40.2C141.468 39.696 141.713 38.968 141.713 38.015V37.595L139.613 37.931C138.003 38.183 137.198 38.722 137.198 39.548C137.198 39.996 137.384 40.343 137.755 40.588C138.125 40.833 138.57 40.955 139.088 40.955C139.858 40.956 140.488 40.704 140.979 40.2Z" fill="white"/>
<path d="M149.21 41.765C148.565 41.1 148.244 40.123 148.244 38.835V34.089H146.585C146.444 34.089 146.325 34.04 146.228 33.943C146.13 33.844 146.082 33.725 146.082 33.586V32.347C146.082 32.207 146.131 32.088 146.228 31.99C146.326 31.892 146.445 31.843 146.585 31.843H148.244V28.357C148.244 28.203 148.293 28.081 148.39 27.989C148.488 27.898 148.607 27.852 148.747 27.852H150.49C150.643 27.852 150.766 27.898 150.857 27.989C150.948 28.08 150.994 28.202 150.994 28.357V31.843H153.619C153.759 31.843 153.878 31.892 153.975 31.99C154.073 32.088 154.122 32.207 154.122 32.347V33.586C154.122 33.726 154.072 33.845 153.975 33.943C153.877 34.041 153.758 34.089 153.619 34.089H150.994V38.604C150.994 39.207 151.098 39.662 151.308 39.969C151.518 40.278 151.861 40.431 152.337 40.431H153.807C153.961 40.431 154.083 40.477 154.175 40.568C154.266 40.659 154.311 40.782 154.311 40.935V42.258C154.311 42.399 154.266 42.518 154.175 42.615C154.083 42.713 153.961 42.761 153.807 42.761H152.085C150.813 42.762 149.854 42.43 149.21 41.765Z" fill="white"/>
<path d="M157.505 42.615C157.406 42.517 157.358 42.398 157.358 42.258V34.089H155.657C155.517 34.089 155.398 34.04 155.301 33.943C155.202 33.844 155.154 33.725 155.154 33.586V32.347C155.154 32.207 155.203 32.088 155.301 31.99C155.399 31.892 155.518 31.843 155.657 31.843H157.358V31.003C157.358 29.729 157.701 28.78 158.387 28.157C159.073 27.534 160.109 27.222 161.495 27.222H162.943C163.083 27.222 163.202 27.271 163.3 27.369C163.398 27.467 163.446 27.586 163.446 27.726V28.965C163.446 29.105 163.397 29.224 163.3 29.322C163.201 29.42 163.082 29.469 162.943 29.469H161.6C161.054 29.469 160.668 29.602 160.445 29.868C160.221 30.134 160.109 30.547 160.109 31.107V31.842H162.734C162.874 31.842 162.993 31.891 163.091 31.989C163.189 32.087 163.237 32.206 163.237 32.346V33.585C163.237 33.725 163.188 33.844 163.091 33.942C162.992 34.04 162.873 34.088 162.734 34.088H160.109V42.257C160.109 42.398 160.064 42.517 159.972 42.614C159.881 42.712 159.759 42.76 159.605 42.76H157.862C157.722 42.762 157.603 42.713 157.505 42.615Z" fill="white"/>
<path d="M165.778 41.712C164.882 40.872 164.399 39.71 164.329 38.226L164.308 37.302L164.329 36.378C164.399 34.908 164.89 33.75 165.8 32.902C166.709 32.055 167.977 31.632 169.601 31.632C171.21 31.632 172.471 32.055 173.381 32.902C174.29 33.75 174.78 34.908 174.851 36.378C174.865 36.546 174.872 36.855 174.872 37.302C174.872 37.75 174.865 38.058 174.851 38.226C174.781 39.71 174.297 40.872 173.402 41.712C172.507 42.552 171.239 42.972 169.601 42.972C167.948 42.972 166.674 42.552 165.778 41.712ZM171.313 40.158C171.711 39.696 171.924 39.016 171.953 38.121C171.967 37.981 171.974 37.708 171.974 37.302C171.974 36.897 171.966 36.623 171.953 36.484C171.925 35.588 171.708 34.905 171.303 34.436C170.897 33.967 170.329 33.733 169.602 33.733C168.86 33.733 168.286 33.967 167.88 34.436C167.474 34.905 167.257 35.587 167.229 36.484L167.208 37.302L167.229 38.121C167.257 39.017 167.474 39.696 167.88 40.158C168.285 40.62 168.859 40.85 169.602 40.85C170.345 40.85 170.913 40.62 171.313 40.158Z" fill="white"/>
<path d="M177.35 42.615C177.251 42.517 177.203 42.398 177.203 42.258V32.367C177.203 32.213 177.252 32.087 177.35 31.989C177.448 31.891 177.567 31.842 177.706 31.842H179.428C179.582 31.842 179.708 31.891 179.807 31.989C179.905 32.087 179.953 32.213 179.953 32.367V33.227C180.653 32.304 181.661 31.842 182.977 31.842H183.859C184.012 31.842 184.135 31.887 184.226 31.978C184.317 32.069 184.363 32.192 184.363 32.346V33.879C184.363 34.02 184.317 34.138 184.226 34.236C184.135 34.334 184.012 34.382 183.859 34.382H182.2C181.542 34.382 181.024 34.571 180.646 34.949C180.268 35.327 180.079 35.845 180.079 36.503V42.257C180.079 42.398 180.03 42.517 179.933 42.614C179.834 42.712 179.715 42.76 179.576 42.76H177.707C177.566 42.762 177.447 42.713 177.35 42.615Z" fill="white"/>
<path d="M186.148 42.615C186.049 42.517 186.001 42.398 186.001 42.258V32.346C186.001 32.192 186.05 32.07 186.148 31.978C186.246 31.887 186.365 31.842 186.504 31.842H188.163C188.317 31.842 188.439 31.887 188.53 31.978C188.621 32.069 188.667 32.192 188.667 32.346V33.059C189.423 32.108 190.438 31.632 191.712 31.632C193.266 31.632 194.351 32.255 194.967 33.501C195.303 32.941 195.779 32.49 196.395 32.147C197.011 31.804 197.676 31.633 198.39 31.633C199.538 31.633 200.476 32.025 201.204 32.808C201.932 33.592 202.296 34.734 202.296 36.232V42.258C202.296 42.399 202.25 42.518 202.159 42.615C202.068 42.712 201.946 42.761 201.792 42.761H200.049C199.909 42.761 199.79 42.712 199.693 42.615C199.594 42.517 199.546 42.398 199.546 42.258V36.4C199.546 35.517 199.36 34.88 198.989 34.489C198.618 34.096 198.132 33.901 197.53 33.901C196.984 33.901 196.518 34.1 196.134 34.499C195.748 34.898 195.556 35.532 195.556 36.4V42.258C195.556 42.399 195.511 42.518 195.42 42.615C195.328 42.713 195.206 42.761 195.052 42.761H193.288C193.147 42.761 193.028 42.712 192.931 42.615C192.834 42.518 192.785 42.398 192.785 42.258V36.4C192.785 35.532 192.596 34.898 192.218 34.499C191.84 34.101 191.358 33.901 190.769 33.901C190.223 33.901 189.758 34.1 189.373 34.499C188.988 34.898 188.796 35.532 188.796 36.4V42.258C188.796 42.399 188.75 42.518 188.659 42.615C188.568 42.712 188.446 42.761 188.292 42.761H186.507C186.365 42.762 186.246 42.713 186.148 42.615Z" fill="white"/>
<path fill-rule="evenodd" clip-rule="evenodd" d="M72.614 31.89C74.647 34.798 78.022 36.706 81.832 36.706C85.316 36.706 88.419 35.125 90.47 32.652L105.333 6.898C94.753 0.772999 81.106 4.445 75.009 15.023L68.948 25.528L72.614 31.89Z" fill="url(#paint0_linear_619:2)"/>
<path fill-rule="evenodd" clip-rule="evenodd" d="M81.832 36.706C78.021 36.706 74.646 34.797 72.614 31.89L68.948 25.528L60.8 11.388L59.711 9.48C58.259 6.972 55.973 5.245 53.397 4.446C52.326 4.1 51.219 3.937 50.112 3.937H50.094H50.057C48.968 3.937 47.861 4.1 46.772 4.446C44.213 5.246 41.908 6.972 40.475 9.48L39.386 11.388L31.22 25.529L27.554 31.891C25.521 34.799 22.146 36.707 18.336 36.707C14.87 36.707 11.749 35.126 9.698 32.653L18.409 47.757L18.481 47.903L21.621 53.355C24.688 58.644 31.493 60.481 36.792 57.409C38.298 56.536 39.532 55.355 40.439 53.992L41.165 52.72L50.094 37.253L59.004 52.72L59.73 53.992C60.656 55.356 61.872 56.536 63.395 57.409C68.676 60.481 75.5 58.645 78.548 53.355L81.688 47.903L81.76 47.757L90.471 32.653C88.42 35.125 85.317 36.706 81.832 36.706Z" fill="url(#paint1_linear_619:2)"/>
<path fill-rule="evenodd" clip-rule="evenodd" d="M12.312 3.936C18.354 3.936 23.29 8.88 23.29 14.932C23.29 20.984 18.354 25.911 12.312 25.911C6.26901 25.911 1.33301 20.985 1.33301 14.932C1.33301 8.88 6.26901 3.936 12.312 3.936Z" fill="url(#paint2_linear_619:2)"/>
<defs>
<linearGradient id="paint0_linear_619:2" x1="71.3825" y1="43.042" x2="99.646" y2="-4.7519" gradientUnits="userSpaceOnUse">
<stop offset="1" stop-color="white"/>
</linearGradient>
<linearGradient id="paint1_linear_619:2" x1="82.0158" y1="61.1838" x2="28.3463" y2="22.5465" gradientUnits="userSpaceOnUse">
<stop stop-color="white"/>
<stop offset="0.1567" stop-color="white"/>
<stop offset="0.6615" stop-color="white"/>
<stop offset="1" stop-color="white"/>
</linearGradient>
<linearGradient id="paint2_linear_619:2" x1="21.8242" y1="24.4398" x2="2.05541" y2="4.67109" gradientUnits="userSpaceOnUse">
<stop offset="0.6615" stop-color="white"/>
<stop offset="1" stop-color="#00AEEF"/>
</linearGradient>
</defs>
</svg>
